Coordinates
version=1
nRows=14
nColumns=24
inDegrees=yes

Units are S.I. units (second, meters, Newtons, ...)
Angles are in degrees.

endheader
time	pelvis_tilt	pelvis_list	pelvis_rotation	pelvis_tx	pelvis_ty	pelvis_tz	hip_flexion_r	hip_adduction_r	hip_rotation_r	knee_angle_r	ankle_angle_r	subtalar_angle_r	mtp_angle_r	hip_flexion_l	hip_adduction_l	hip_rotation_l	knee_angle_l	ankle_angle_l	subtalar_angle_l	mtp_angle_l	lumbar_extension	lumbar_bending	lumbar_rotation
      3.55000000	     -2.00493131	      0.88860844	      4.84586602	      0.71481856	      0.81238413	     -0.27429938	      4.31197811	      3.04686101	     -0.38573139	    -11.96829029	     13.31285254	      1.07714635	      0.00000000	     14.40401008	      1.28818607	      2.62283314	    -52.73651005	     -3.00886912	     -5.93030855	      0.00000000	    -10.16057729	      0.95082096	     -8.87220271
      3.56000000	     -2.21369609	      1.30634275	      4.44635480	      0.72835669	      0.81297965	     -0.27504218	      3.19047862	      2.57860504	     -0.53402882	    -11.37539782	     13.65070431	      1.70538945	      0.00000000	     15.92237769	      1.65768518	      2.54253960	    -51.37708764	     -2.80591167	     -8.53182750	      0.00000000	    -10.08862474	      0.38713420	     -8.32962722
      3.57000000	     -2.38542083	      1.62363984	      4.06204847	      0.74185873	      0.81331438	     -0.27585732	      2.05276141	      2.20800770	     -0.85663692	    -10.78995851	     13.96783957	      2.35064678	      0.00000000	     17.26695087	      1.90902299	      2.54326488	    -49.60262221	     -2.73862273	    -11.03788721	      0.00000000	    -10.03934753	     -0.04534504	     -7.80585844
      3.58000000	     -2.51705201	      1.82687951	      3.65105899	      0.75534099	      0.81338785	     -0.27670043	      0.87466302	      1.96490335	     -1.17216368	    -10.18062195	     14.20006263	      2.92215103	      0.00000000	     18.43146923	      1.99159168	      2.53547388	    -47.42253786	     -2.75117545	    -13.33553909	      0.00000000	     -9.98835231	     -0.32273420	     -7.38991248
      3.59000000	     -2.59674395	      1.88686787	      3.24289772	      0.76884151	      0.81320601	     -0.27760609	     -0.35310412	      1.87290765	     -1.59260143	     -9.56257710	     14.36089059	      3.47886569	      0.00000000	     19.39534943	      1.89963781	      2.60030786	    -44.84896920	     -2.80692253	    -15.38473820	      0.00000000	     -9.92342249	     -0.41199142	     -7.12801752
      3.60000000	     -2.62384794	      1.79704111	      2.82142807	      0.78240425	      0.81278091	     -0.27854440	     -1.64871947	      1.94227438	     -2.01737026	     -8.91660642	     14.43024710	      3.99141189	      0.00000000	     20.15264882	      1.61273877	      2.70740350	    -41.89828065	     -2.88508181	    -17.06979635	      0.00000000	     -9.83576524	     -0.31031502	     -7.04340313
      3.61000000	     -2.59262467	      1.54610805	      2.40212428	      0.79607927	      0.81213106	     -0.27952853	     -3.03879373	      2.18246926	     -2.38306866	     -8.22005982	     14.39306554	      4.44723179	      0.00000000	     20.69768536	      1.12319216	      2.87252094	    -38.60318209	     -2.96689919	    -18.23828964	      0.00000000	     -9.76088299	     -0.00473316	     -7.07434415
      3.62000000	     -2.59937797	      1.18897594	      1.97543269	      0.80991920	      0.81117359	     -0.28056588	     -4.38961640	      2.51124337	     -2.78636239	     -7.54831423	     14.27659076	      4.90245482	      0.00000000	     21.11877958	      0.50514541	      3.11082848	    -34.98114886	     -3.05458627	    -19.01057486	      0.00000000	     -9.65344653	      0.42141794	     -6.98008903
      3.63000000	     -2.61689747	      0.68287798	      1.55049256	      0.82394782	      0.80995405	     -0.28162967	     -5.75718344	      2.97906158	     -3.02816750	     -6.86003169	     14.08181019	      5.29297537	      0.00000000	     21.41100009	     -0.29404754	      3.44428076	    -31.10667686	     -3.12072239	    -19.05878670	      0.00000000	     -9.62978831	      1.00254036	     -6.54095685
      3.64000000	     -2.67269579	      0.13924060	      1.10618878	      0.83823246	      0.80848821	     -0.28271073	     -7.09215975	      3.44707171	     -3.15790395	     -6.21209464	     13.81089438	      5.74341473	      0.00000000	     21.56661069	     -1.14344007	      3.92933960	    -26.96585488	     -3.29532215	    -18.74364769	      0.00000000	     -9.67305453	      1.59295959	     -5.73536706
      3.65000000	     -2.76261159	     -0.45985566	      0.64457422	      0.85277623	      0.80677890	     -0.28382685	     -8.39299412	      3.92552390	     -3.15081945	     -5.61423046	     13.49169312	      6.23336221	      0.00000000	     21.61194930	     -2.06589261	      4.60381971	    -22.65959959	     -3.54463202	    -18.03748973	      0.00000000	     -9.72437055	      2.23437709	     -4.66790313
      3.66000000	     -2.90377582	     -1.12444885	      0.14323226	      0.86756201	      0.80482014	     -0.28490260	     -9.61048623	      4.42142809	     -2.96748220	     -5.12848843	     13.12044470	      6.74348288	      0.00000000	     21.59553768	     -3.09010993	      5.48210282	    -18.30016380	     -3.83172404	    -17.04940168	      0.00000000	     -9.67228269	      2.92829231	     -3.59532557
      3.67000000	     -3.02158566	     -1.81571915	     -0.37839154	      0.88260267	      0.80270844	     -0.28598072	    -10.83249170	      4.89125150	     -2.62367483	     -4.73874515	     12.73000156	      7.27772312	      0.00000000	     21.48681887	     -4.18091796	      6.48122179	    -14.05236239	     -4.07048781	    -15.85538625	      0.00000000	     -9.56118572	      3.66145871	     -2.64519312
      3.68000000	     -3.09855695	     -2.48820889	     -0.92437127	      0.89790905	      0.80051181	     -0.28699467	    -12.09715902	      5.29897102	     -1.97588345	     -4.40887959	     12.21993632	      7.57990468	      0.00000000	     21.36565432	     -5.31481623	      7.10924930	    -10.18572119	     -3.87728848	    -13.94019702	      0.00000000	     -9.41525730	      4.35601024	     -1.81456018
